<svg xmlns="http://www.w3.org/2000/svg" viewBox="0 0 512 512">
	<!-- Ícone maskable — navy full-bleed, marca "F" no safe-zone central -->
	<rect width="512" height="512" fill="#0A0F1E"/>
	<g transform="translate(136 106) scale(0.21014)">
		<g transform="translate(-286.434880,1713.677258) scale(0.1,-0.1)" fill="#8B6BFF" stroke="none">
			<path d="M4075 17125 c-600 -97 -1058 -533 -1187 -1128 -29 -136 -32 -417 -5 -550 57 -280 182 -519 377 -721 200 -207 416 -332 695 -402 123 -31 396 -44 538 -25 460 61 877 368 1082 796 95 199 135 381 135 621 0 240 -39 414 -139 619 -78 159 -160 271 -289 397 -203 198 -431 320 -709 379 -129 28 -371 34 -498 14z"/>
			<path d="M9850 17134 c-135 -22 -218 -40 -295 -66 -361 -120 -659 -378 -829 -715 -93 -185 -133 -343 -146 -578 -17 -288 -43 -432 -105 -585 -161 -396 -466 -687 -867 -828 -131 -47 -223 -62 -459 -77 -302 -20 -445 -54 -644 -155 -142 -72 -227 -133 -349 -250 -172 -166 -285 -341 -359 -555 -61 -175 -72 -247 -72 -465 0 -217 11 -288 70 -467 137 -410 477 -751 886 -887 152 -51 238 -65 473 -81 230 -15 326 -32 456 -77 362 -128 652 -385 815 -723 112 -231 150 -414 142 -675 -7 -225 -45 -381 -137 -575 -97 -203 -300 -438 -480 -557 -250 -164 -469 -232 -805 -248 -201 -10 -335 -33 -472 -81 -504 -178 -873 -631 -943 -1155 -8 -66 -10 -504 -8 -1679 4 -1583 4 -1590 25 -1675 72 -286 197 -512 389 -704 189 -190 413 -316 678 -382 127 -32 372 -43 521 -24 538 67 1007 461 1169 982 69 218 66 145 66 1773 0 846 4 1529 10 1610 25 365 156 652 415 910 133 134 224 201 371 274 199 98 367 138 639 151 99 5 218 16 264 25 598 115 1056 594 1145 1198 108 726 -360 1417 -1078 1593 -69 17 -153 28 -266 34 -91 6 -203 15 -250 21 -607 75 -1103 540 -1220 1145 -44 227 -23 521 52 732 126 358 379 647 713 814 180 90 336 132 562 148 83 6 720 10 1603 10 973 -1 1490 3 1539 10 593 84 1075 547 1193 1145 25 130 27 388 3 520 -67 372 -295 721 -607 928 -167 112 -310 173 -513 220 -89 21 -103 21 -1680 23 -874 1 -1601 0 -1615 -2z"/>
		</g>
	</g>
</svg>
